<svg preserveAspectRatio="none" viewBox="0 0 696 699" fill="none" xmlns="http://www.w3.org/2000/svg">
<path d="M246.602 595.938L103.393 595.968L103.4 451.522V451.313L103.252 451.166L1.19232 349.686L103.252 248.209L103.4 248.062V247.853L103.409 103.313L246.603 103.304H246.809L246.955 103.157L348.001 1.39453L449.048 103.161L449.194 103.308H449.4L592.204 103.315L592.303 247.855L592.304 248.064L592.451 248.21L694.807 349.687L592.451 451.167L592.303 451.314V451.522L592.276 595.939H449.194L449.048 596.086L348.001 697.981L246.955 596.085L246.809 595.938H246.602Z" fill="#FFFCF7" stroke="black" stroke-width="1.02432"/>
<path d="M348.122 62.5989L351.694 69.9154L359.372 67.2792L356.746 74.9881L364.031 78.576L356.746 82.1639L359.372 89.8728L351.694 87.2366L348.122 94.5531L344.55 87.2366L336.873 89.8728L339.499 82.1639L332.213 78.576L339.499 74.9891L336.873 67.2782L344.55 69.9154L348.122 62.5989ZM88.6049 333.211L92.1765 340.528L99.8536 337.89L97.2286 345.601L104.514 349.188L97.2286 352.775L99.8536 360.486L92.1775 357.849L88.6039 365.165L85.0313 357.849L77.3552 360.486L79.9802 352.775L72.6958 349.188L79.9812 345.601L77.3562 337.89L85.0323 340.528L88.6049 333.211V333.211ZM605.651 333.211L609.223 340.528L616.901 337.89L614.275 345.601L621.56 349.188L614.275 352.775L616.901 360.486L609.223 357.849L605.651 365.165L602.079 357.849L594.401 360.486L597.027 352.775L589.742 349.188L597.027 345.601L594.401 337.89L602.079 340.528L605.651 333.211ZM348.122 594.836L351.694 602.153L359.372 599.516L356.746 607.227L364.031 610.813L356.746 614.4L359.372 622.111L351.694 619.474L348.122 626.791L344.55 619.474L336.873 622.111L339.499 614.4L332.213 610.813L339.499 607.227L336.873 599.516L344.55 602.153L348.122 594.836Z" fill="#8B83F6"/>
</svg>
